<svg xmlns="http://www.w3.org/2000/svg" viewBox="0 0 512 512" role="img" aria-label="Worker icon">
  <defs>
    <linearGradient id="bg" x1="0%" y1="0%" x2="100%" y2="100%">
      <stop offset="0%" stop-color="#3B82F6" />
      <stop offset="100%" stop-color="#60A5FA" />
    </linearGradient>

    <filter id="glow" x="-50%" y="-50%" width="200%" height="200%">
      <feDropShadow dx="0" dy="8" stdDeviation="12" flood-color="#000000" flood-opacity="0.5"/>
      <feDropShadow dx="0" dy="0" stdDeviation="15" flood-color="#FFFFFF" flood-opacity="0.4"/>
    </filter>
  </defs>

  <rect width="512" height="512" rx="112" fill="url(#bg)"/>

  <!-- glow/pulse layer: position is a real attribute (renders without CSS); opacity breathes via SMIL -->
  <g transform="translate(52, 52) scale(17)" filter="url(#glow)" fill="none" stroke="#FFFFFF" stroke-width="1.5" stroke-linecap="round" stroke-linejoin="round" opacity="0.55">
    <animate attributeName="opacity" values="0.28;0.95;0.28" dur="3s" repeatCount="indefinite"/>
      <path d="M14.7 6.3a1 1 0 0 0 0 1.4l1.6 1.6a1 1 0 0 0 1.4 0l3.77-3.77a6 6 0 0 1-7.94 7.94l-6.91 6.91a2.12 2.12 0 0 1-3-3l6.91-6.91a6 6 0 0 1 7.94-7.94l-3.76 3.76z" />
  </g>

  <!-- main layer: base position via attribute; gentle float via additive SMIL -->
  <g transform="translate(52, 52)" fill="none" stroke="#FFFFFF" stroke-width="1.5" stroke-linecap="round" stroke-linejoin="round">
    <animateTransform attributeName="transform" type="translate" additive="sum"
      values="0 0; 0 -16; 0 0" keyTimes="0;0.5;1"
      dur="4s" repeatCount="indefinite" calcMode="spline" keySplines="0.45 0 0.55 1;0.45 0 0.55 1"/>
    <g transform="scale(17)">
      <path d="M14.7 6.3a1 1 0 0 0 0 1.4l1.6 1.6a1 1 0 0 0 1.4 0l3.77-3.77a6 6 0 0 1-7.94 7.94l-6.91 6.91a2.12 2.12 0 0 1-3-3l6.91-6.91a6 6 0 0 1 7.94-7.94l-3.76 3.76z" />
    </g>
  </g>
</svg>
